Run_20002
nRows=4
nColumns=164

# SIMM Motion File Header:
name Run_20002
datacolumns 164
datarows 4
otherdata 1
range 1.45000000 1.48000000
endheader
time	pelvis_tilt	pelvis_list	pelvis_rotation	pelvis_tx	pelvis_ty	pelvis_tz	hip_flexion_r	hip_adduction_r	hip_rotation_r	knee_angle_r	ankle_angle_r	hip_flexion_l	hip_adduction_l	hip_rotation_l	knee_angle_l	ankle_angle_l	lumbar_extension	lumbar_bending	lumbar_rotation	arm_flex_r	arm_add_r	arm_rot_r	elbow_flex_r	pro_sup_r	arm_flex_l	arm_add_l	arm_rot_l	elbow_flex_l	pro_sup_l	subtalar_angle_r	mtp_angle_r	subtalar_angle_l	mtp_angle_l	wrist_flex_r	wrist_dev_r	wrist_flex_l	wrist_dev_l	LASI_tx	LASI_ty	LASI_tz	RASI_tx	RASI_ty	RASI_tz	LPSI_tx	LPSI_ty	LPSI_tz	RPSI_tx	RPSI_ty	RPSI_tz	RTH1_tx	RTH1_ty	RTH1_tz	RTH2_tx	RTH2_ty	RTH2_tz	RTH3_tx	RTH3_ty	RTH3_tz	LTH1_tx	LTH1_ty	LTH1_tz	LTH2_tx	LTH2_ty	LTH2_tz	LTH3_tx	LTH3_ty	LTH3_tz	RTB1_tx	RTB1_ty	RTB1_tz	RTB2_tx	RTB2_ty	RTB2_tz	RTB3_tx	RTB3_ty	RTB3_tz	LTB1_tx	LTB1_ty	LTB1_tz	LTB2_tx	LTB2_ty	LTB2_tz	LTB3_tx	LTB3_ty	LTB3_tz	RCAL_tx	RCAL_ty	RCAL_tz	RTOE_tx	RTOE_ty	RTOE_tz	RMT5_tx	RMT5_ty	RMT5_tz	LCAL_tx	LCAL_ty	LCAL_tz	LTOE_tx	LTOE_ty	LTOE_tz	LMT5_tx	LMT5_ty	LMT5_tz	LACR_tx	LACR_ty	LACR_tz	RACR_tx	RACR_ty	RACR_tz	CLAV_tx	CLAV_ty	CLAV_tz	C7_tx	C7_ty	C7_tz	RUA1_tx	RUA1_ty	RUA1_tz	RUA2_tx	RUA2_ty	RUA2_tz	RUA3_tx	RUA3_ty	RUA3_tz	RLEL_tx	RLEL_ty	RLEL_tz	RMEL_tx	RMEL_ty	RMEL_tz	LUA1_tx	LUA1_ty	LUA1_tz	LUA2_tx	LUA2_ty	LUA2_tz	LUA3_tx	LUA3_ty	LUA3_tz	LLEL_tx	LLEL_ty	LLEL_tz	LMEL_tx	LMEL_ty	LMEL_tz	RFAsuperior_tx	RFAsuperior_ty	RFAsuperior_tz	RFAradius_tx	RFAradius_ty	RFAradius_tz	RFAulna_tx	RFAulna_ty	RFAulna_tz	LFAsuperior_tx	LFAsuperior_ty	LFAsuperior_tz	LFAradius_tx	LFAradius_ty	LFAradius_tz	LFAulna_tx	LFAulna_ty	LFAulna_tz
      1.45000000	      2.31472444	      1.37015074	      0.55562938	      0.71919290	      1.01385305	     -0.30641498	     15.56498184	      2.88738708	      1.67181848	    -18.18151308	      2.18189285	     -8.25995656	      4.47749178	      3.22418023	    -46.42363721	    -21.11951447	    -15.73717966	     -3.23912233	     -7.77637724	    -32.32436961	    -11.42955265	    -10.11896479	     93.36940378	     73.26698359	      0.69414558	    -22.24338597	      8.43716223	    109.60276471	     97.81338907	      0.00000000	      0.00000000	      0.00000000	      0.00000000	      0.00000000	      0.00000000	      0.00000000	      0.00000000	      0.72304094	      1.03623897	     -0.43865477	      0.72296614	      1.03454902	     -0.17792766	      0.55320433	      1.05177444	     -0.35761886	      0.55146581	      1.04905955	     -0.25745999	      0.65979577	      0.83473967	     -0.13915863	      0.76726109	      0.74733242	     -0.14526628	      0.72411865	      0.61674741	     -0.18129267	      0.62428640	      0.83436150	     -0.48131262	      0.67784629	      0.70252798	     -0.45995987	      0.60630510	      0.59419362	     -0.45120320	      0.82478316	      0.38988792	     -0.26128984	      0.80105692	      0.33025195	     -0.20066995	      0.81157804	      0.22239118	     -0.26664445	      0.51575183	      0.37629947	     -0.38614920	      0.42048676	      0.36594396	     -0.44796414	      0.38569941	      0.28934652	     -0.38400975	      0.70567287	      0.09577786	     -0.27956968	      0.92936470	      0.07965549	     -0.28674827	      0.87898090	      0.06169306	     -0.19826149	      0.22773531	      0.31344667	     -0.37743269	      0.29023669	      0.09725182	     -0.34221316	      0.24000850	      0.12377044	     -0.42963220	      0.73314927	      1.49940824	     -0.47895665	      0.70235288	      1.51322635	     -0.15203976	      0.76548395	      1.44289656	     -0.28021327	      0.65298469	      1.52520257	     -0.32323855	      0.61954791	      1.45977665	     -0.07967799	      0.54462277	      1.40973744	     -0.12676196	      0.54418140	      1.35201947	     -0.07218914	      0.47416510	      1.26477930	     -0.06007572	      0.47922006	      1.26053581	     -0.14281839	      0.70611672	      1.41080286	     -0.56050437	      0.64956978	      1.32978933	     -0.54746601	      0.67706272	      1.26619870	     -0.59556790	      0.69639987	      1.18110619	     -0.61652635	      0.65001840	      1.17042172	     -0.55009315	      0.55557217	      1.19346052	     -0.04190266	      0.68412419	      1.10047953	     -0.06436664	      0.62815720	      1.05397265	     -0.06521699	      0.79470561	      1.17985870	     -0.56518028	      0.89612503	      1.18905200	     -0.43804125	      0.91183945	      1.12508648	     -0.46869073
      1.46000000	      3.05917497	      0.73687527	      0.24681076	      0.71774684	      1.00819162	     -0.30551694	     15.40246039	      3.83581388	      1.90968773	    -21.56057233	      4.23389634	     -6.81825594	      3.64752625	      2.16284666	    -51.28476712	    -21.37555309	    -16.78029880	     -2.48733037	     -6.82089574	    -31.13453486	    -12.05754895	     -9.91635823	     93.50192240	     72.90342489	      0.69742987	    -21.88253295	      8.71530345	    108.49794755	     97.68490224	      0.00000000	      0.00000000	      0.00000000	      0.00000000	      0.00000000	      0.00000000	      0.00000000	      0.00000000	      0.72230101	      1.02951107	     -0.43875892	      0.72138721	      1.02793659	     -0.17705510	      0.55169586	      1.04254510	     -0.35725636	      0.54991389	      1.04001692	     -0.25707357	      0.65918225	      0.83044163	     -0.13938028	      0.76687773	      0.74380414	     -0.14714972	      0.72396916	      0.61216104	     -0.18253989	      0.63153897	      0.82704660	     -0.48042255	      0.68454258	      0.69510652	     -0.45921693	      0.61705946	      0.58507649	     -0.45127255	      0.82171395	      0.38482065	     -0.26268387	      0.79557672	      0.32604042	     -0.20205086	      0.80067613	      0.21759141	     -0.26687613	      0.52650543	      0.37073880	     -0.38706959	      0.43059825	      0.36437791	     -0.44886682	      0.39224338	      0.29003179	     -0.38511488	      0.68772622	      0.09655577	     -0.27995934	      0.91163004	      0.07352880	     -0.28807624	      0.86048155	      0.05998296	     -0.19774275	      0.23691311	      0.32244991	     -0.37737102	      0.28803344	      0.10267672	     -0.34500190	      0.23724011	      0.13267725	     -0.43079911	      0.73193572	      1.49214323	     -0.47804414	      0.70331579	      1.50589825	     -0.15026804	      0.76549667	      1.43519711	     -0.27953443	      0.65221505	      1.51831366	     -0.32130052	      0.62219942	      1.45043395	     -0.07690144	      0.54630010	      1.40015248	     -0.12202603	      0.54822631	      1.34163471	     -0.06814982	      0.47946084	      1.25394780	     -0.05531636	      0.48357674	      1.24972789	     -0.13820315	      0.70391304	      1.40332330	     -0.55975225	      0.64680677	      1.32270417	     -0.54626661	      0.67356925	      1.25903756	     -0.59463247	      0.69175929	      1.17404429	     -0.61567844	      0.64578234	      1.16383194	     -0.54912262	      0.56204558	      1.18391974	     -0.03827450	      0.69145810	      1.09290321	     -0.06253987	      0.63624886	      1.04563982	     -0.06251990	      0.79060478	      1.17030473	     -0.56526335	      0.89327324	      1.17644336	     -0.43873251	      0.90714171	      1.11211272	     -0.46997053
      1.47000000	      3.76445510	     -0.26871406	     -0.26680370	      0.71555418	      1.00223343	     -0.30410608	     15.56924785	      5.26665204	      2.27488933	    -25.46054025	      7.30300085	     -5.23364946	      2.37860565	      0.98322935	    -56.17747005	    -20.25177094	    -17.85382153	     -1.43441834	     -5.51394442	    -29.71787343	    -12.88561753	     -9.57459142	     93.52120662	     72.34615898	      0.71498980	    -21.39644088	      8.85869084	    107.07880880	     97.83162825	      0.00000000	      0.00000000	      0.00000000	      0.00000000	      0.00000000	      0.00000000	      0.00000000	      0.00000000	      0.72155180	      1.02183414	     -0.43841329	      0.71919345	      1.02157565	     -0.17587359	      0.54956954	      1.03271718	     -0.35753958	      0.54772747	      1.03040839	     -0.25733968	      0.65757469	      0.82641569	     -0.13824946	      0.76544771	      0.74059000	     -0.14747187	      0.72462046	      0.60914205	     -0.18273542	      0.63801834	      0.81873155	     -0.47966338	      0.69105590	      0.68758178	     -0.45860114	      0.62817084	      0.57568309	     -0.45089505	      0.81828186	      0.38170002	     -0.26395549	      0.79104867	      0.32407925	     -0.20297531	      0.78936017	      0.21557382	     -0.26750133	      0.53820513	      0.36601561	     -0.38752643	      0.44172504	      0.36290283	     -0.44958841	      0.40018476	      0.29127286	     -0.38568743	      0.66906058	      0.09718757	     -0.27991474	      0.89345259	      0.07144159	     -0.28901663	      0.84192814	      0.06166482	     -0.19708513	      0.24603521	      0.33053043	     -0.37658698	      0.29051070	      0.10856616	     -0.34853704	      0.23947539	      0.14173386	     -0.43281485	      0.73038702	      1.48471074	     -0.47769209	      0.70398943	      1.49867361	     -0.14827274	      0.76557547	      1.42744951	     -0.27891110	      0.65159256	      1.51168241	     -0.31943380	      0.62525196	      1.44018650	     -0.07417544	      0.54819983	      1.38960008	     -0.11684823	      0.55283245	      1.33035084	     -0.06376172	      0.48550621	      1.24235057	     -0.05010082	      0.48760876	      1.23796873	     -0.13280271	      0.70072441	      1.39527804	     -0.55911046	      0.64345242	      1.31486821	     -0.54517817	      0.66954882	      1.25122452	     -0.59365170	      0.68624689	      1.16645984	     -0.61459178	      0.64096041	      1.15681755	     -0.54781483	      0.56921840	      1.17358621	     -0.03421978	      0.69945870	      1.08462626	     -0.06057170	      0.64493623	      1.03668591	     -0.05962099	      0.78579311	      1.15993686	     -0.56556749	      0.89003630	      1.16184565	     -0.44010908	      0.90181374	      1.09781941	     -0.47204600
      1.48000000	      4.48154006	     -1.49223127	     -0.87310279	      0.71303384	      0.99637992	     -0.30258989	     15.71345830	      6.94715636	      2.70192236	    -29.41454008	     10.42736186	     -3.62671472	      0.87121229	     -0.10052800	    -60.94006875	    -18.13665348	    -18.97713707	     -0.21764729	     -4.00253894	    -28.09931807	    -13.91074226	     -9.07074359	     93.38392173	     71.50629452	      0.67654186	    -20.77677053	      8.84456270	    105.33760088	     98.19450240	      0.00000000	      0.00000000	      0.00000000	      0.00000000	      0.00000000	      0.00000000	      0.00000000	      0.00000000	      0.72059457	      1.01356476	     -0.43783661	      0.71669591	      1.01622447	     -0.17412805	      0.54702450	      1.02302248	     -0.35874004	      0.54511438	      1.02097146	     -0.25852414	      0.65577379	      0.82243174	     -0.13633441	      0.76405036	      0.73776085	     -0.14702730	      0.72588151	      0.60738610	     -0.18163334	      0.64366219	      0.80997900	     -0.47911852	      0.69776773	      0.68073265	     -0.45824800	      0.63968478	      0.56664767	     -0.45001067	      0.81354242	      0.37958331	     -0.26509148	      0.78579842	      0.32319900	     -0.20352174	      0.77695280	      0.21490869	     -0.26824058	      0.55093353	      0.36227281	     -0.38739633	      0.45409596	      0.36189917	     -0.44990638	      0.40987466	      0.29307505	     -0.38559738	      0.64983266	      0.09775388	     -0.27958411	      0.87466705	      0.07083963	     -0.28872404	      0.82325762	      0.06418585	     -0.19670879	      0.25566283	      0.33770471	     -0.37548095	      0.29733478	      0.11453746	     -0.35211365	      0.24674432	      0.15026359	     -0.43550059	      0.72844385	      1.47748733	     -0.47799420	      0.70428511	      1.49186732	     -0.14629828	      0.76556355	      1.42024757	     -0.27832643	      0.65134809	      1.50583682	     -0.31771156	      0.62871557	      1.42958674	     -0.07168675	      0.55045230	      1.37837976	     -0.11123581	      0.55816935	      1.31857677	     -0.05914051	      0.49240526	      1.23026337	     -0.04457520	      0.49132366	      1.22546801	     -0.12663757	      0.69668756	      1.38717925	     -0.55850147	      0.63945900	      1.30667838	     -0.54399676	      0.66500563	      1.24326581	     -0.59247710	      0.67988937	      1.15873239	     -0.61336817	      0.63554522	      1.14969655	     -0.54615186	      0.57716166	      1.16269007	     -0.02986973	      0.70823433	      1.07587607	     -0.05846532	      0.65435353	      1.02729366	     -0.05663634	      0.78022430	      1.14899895	     -0.56611080	      0.88632583	      1.14569649	     -0.44219737	      0.89569256	      1.08242003	     -0.47499566
